{
  "accessors": [
    {
      "name": "Default_0_positions",
      "componentType": 5126,
      "count": 764,
      "min": [
        -8.95730972290039,
        -0.7426329851150513,
        -10.41759967803955
      ],
      "max": [
        9.259739875793457,
        17.54960060119629,
        5.698599815368652
      ],
      "type": "VEC3",
      "bufferView": 0,
      "byteOffset": 0
    },
    {
      "name": "Default_0_normals",
      "componentType": 5126,
      "count": 764,
      "min": [
        -0.9753339886665344,
        -0.9945231080055237,
        -0.9975758194923401
      ],
      "max": [
        0.9846655130386353,
        0.999779999256134,
        0.9951092004776001
      ],
      "type": "VEC3",
      "bufferView": 1,
      "byteOffset": 0
    },
    {
      "name": "Default_0_texcoords",
      "componentType": 5126,
      "count": 764,
      "min": [
        0.009999999776482582,
        0.009999999776482582
      ],
      "max": [
        0.7496910095214844,
        0.9900000095367432
      ],
      "type": "VEC2",
      "bufferView": 2,
      "byteOffset": 0
    },
    {
      "name": "Default_0_indices",
      "componentType": 5123,
      "count": 1140,
      "min": [
        0
      ],
      "max": [
        763
      ],
      "type": "SCALAR",
      "bufferView": 3,
      "byteOffset": 0
    },
    {
      "name": "Default_1_positions",
      "componentType": 5126,
      "count": 360,
      "min": [
        -14.06190013885498,
        8.734769821166992,
        -13.472000122070312
      ],
      "max": [
        13.91919994354248,
        25.799100875854492,
        7.3297200202941895
      ],
      "type": "VEC3",
      "bufferView": 0,
      "byteOffset": 9168
    },
    {
      "name": "Default_1_normals",
      "componentType": 5126,
      "count": 360,
      "min": [
        -0.9856773018836975,
        -0.9966031312942505,
        -0.9832279682159424
      ],
      "max": [
        0.9856773018836975,
        0.9966031312942505,
        0.9832279682159424
      ],
      "type": "VEC3",
      "bufferView": 1,
      "byteOffset": 9168
    },
    {
      "name": "Default_1_texcoords",
      "componentType": 5126,
      "count": 360,
      "min": [
        0.009999999776482582,
        0.009999999776482582
      ],
      "max": [
        0.9172409772872925,
        0.9900000095367432
      ],
      "type": "VEC2",
      "bufferView": 2,
      "byteOffset": 6112
    },
    {
      "name": "Default_1_indices",
      "componentType": 5123,
      "count": 360,
      "min": [
        0
      ],
      "max": [
        359
      ],
      "type": "SCALAR",
      "bufferView": 3,
      "byteOffset": 2280
    }
  ],
  "asset": {
    "generator": "obj2gltf",
    "version": "2.0"
  },
  "buffers": [
    {
      "name": "Lowpoly_tree_sample",
      "byteLength": 38968,
      "uri": "data:application/octet-stream;base64,"
    }
  ],
  "bufferViews": [
    {
      "name": "bufferView_0",
      "buffer": 0,
      "byteLength": 13488,
      "byteOffset": 0,
      "byteStride": 12,
      "target": 34962
    },
    {
      "name": "bufferView_1",
      "buffer": 0,
      "byteLength": 13488,
      "byteOffset": 13488,
      "byteStride": 12,
      "target": 34962
    },
    {
      "name": "bufferView_2",
      "buffer": 0,
      "byteLength": 8992,
      "byteOffset": 26976,
      "byteStride": 8,
      "target": 34962
    },
    {
      "name": "bufferView_3",
      "buffer": 0,
      "byteLength": 3000,
      "byteOffset": 35968,
      "target": 34963
    }
  ],
  "materials": [
    {
      "name": "Bark",
      "pbrMetallicRoughness": {
        "baseColorFactor": [
          0.207595,
          0.138513,
          0.055181,
          1
        ],
        "metallicFactor": 0,
        "roughnessFactor": 0.744
      },
      "emissiveFactor": [
        0,
        0,
        0
      ],
      "alphaMode": "OPAQUE",
      "doubleSided": false
    },
    {
      "name": "Tree",
      "pbrMetallicRoughness": {
        "baseColorFactor": [
          0.256861,
          0.440506,
          0.110769,
          1
        ],
        "metallicFactor": 0,
        "roughnessFactor": 0.744
      },
      "emissiveFactor": [
        0,
        0,
        0
      ],
      "alphaMode": "OPAQUE",
      "doubleSided": false
    }
  ],
  "meshes": [
    {
      "name": "Default",
      "primitives": [
        {
          "attributes": {
            "POSITION": 0,
            "NORMAL": 1,
            "TEXCOORD_0": 2
          },
          "indices": 3,
          "material": 0,
          "mode": 4
        },
        {
          "attributes": {
            "POSITION": 4,
            "NORMAL": 5,
            "TEXCOORD_0": 6
          },
          "indices": 7,
          "material": 1,
          "mode": 4
        }
      ]
    }
  ],
  "nodes": [
    {
      "name": "Tree_lp_11",
      "mesh": 0
    }
  ],
  "scene": 0,
  "scenes": [
    {
      "nodes": [
        0
      ]
    }
  ]
}
